<?xml version="1.0" encoding="UTF-8" standalone="no"?>
<svg
   width="28"
   height="28"
   version="1.1"
   id="svg9"
   sodipodi:docname="Instagram_logo_26x26_certo.svg"
   inkscape:version="1.4 (86a8ad7, 2024-10-11)"
   xmlns:inkscape="http://www.inkscape.org/namespaces/inkscape"
   xmlns:sodipodi="http://sodipodi.sourceforge.net/DTD/sodipodi-0.dtd"
   xmlns:xlink="http://www.w3.org/1999/xlink"
   xmlns="http://www.w3.org/2000/svg"
   xmlns:svg="http://www.w3.org/2000/svg">
  <sodipodi:namedview
     id="namedview9"
     pagecolor="#ffffff"
     bordercolor="#000000"
     borderopacity="0.25"
     inkscape:showpageshadow="2"
     inkscape:pageopacity="0.0"
     inkscape:pagecheckerboard="0"
     inkscape:deskcolor="#d1d1d1"
     inkscape:zoom="4.0719697"
     inkscape:cx="87.672558"
     inkscape:cy="87.549767"
     inkscape:window-width="2400"
     inkscape:window-height="1271"
     inkscape:window-x="-9"
     inkscape:window-y="-9"
     inkscape:window-maximized="1"
     inkscape:current-layer="svg9"
     inkscape:export-bgcolor="#ffffff00" />
  <defs
     id="defs7">
    <linearGradient
       id="b">
      <stop
         offset="0"
         stop-color="#3771c8"
         id="stop1" />
      <stop
         stop-color="#3771c8"
         offset=".128"
         id="stop2" />
      <stop
         offset="1"
         stop-color="#60f"
         stop-opacity="0"
         id="stop3" />
    </linearGradient>
    <linearGradient
       id="a">
      <stop
         offset="0"
         stop-color="#fd5"
         id="stop4" />
      <stop
         offset=".1"
         stop-color="#fd5"
         id="stop5" />
      <stop
         offset=".5"
         stop-color="#ff543e"
         id="stop6" />
      <stop
         offset="1"
         stop-color="#c837ab"
         id="stop7" />
    </linearGradient>
    <radialGradient
       id="c"
       cx="158.429"
       cy="578.08801"
       r="65"
       xlink:href="#a"
       gradientUnits="userSpaceOnUse"
       gradientTransform="matrix(0,-0.39642932,0.36881106,0,-159.86392,133.80286)"
       fx="158.429"
       fy="578.08801" />
    <radialGradient
       id="d"
       cx="147.694"
       cy="473.45499"
       r="65"
       xlink:href="#b"
       gradientUnits="userSpaceOnUse"
       gradientTransform="matrix(0.03479097,0.17375858,-0.71642024,0.14344811,376.13112,-48.711895)"
       fx="147.694"
       fy="473.45499" />
  </defs>
  <g
     id="g9"
     transform="translate(-45.436598,-41.994418)">
    <path
       fill="url(#c)"
       d="m 59.440885,42.994419 c -5.428853,0 -7.016594,0.0061 -7.325219,0.0312 -1.114091,0.09258 -1.80735,0.268021 -2.562612,0.644055 -0.582046,0.289023 -1.041091,0.624057 -1.494121,1.093687 -0.825077,0.856475 -1.325122,1.910162 -1.506132,3.162671 -0.088,0.608047 -0.113613,0.732061 -0.118813,3.837919 -0.0021,1.035285 0,2.397808 0,4.225366 0,5.424449 0.0062,7.010581 0.03205,7.318612 0.08997,1.084092 0.260025,1.766146 0.620054,2.512209 0.688061,1.428118 2.002174,2.500216 3.5503,2.900243 0.536046,0.138009 1.128096,0.214022 1.88816,0.250015 0.322027,0.01409 3.604308,0.02402 6.888583,0.02402 3.284276,0 6.568549,-0.0042 6.882577,-0.01994 0.880074,-0.0414 1.391114,-0.110013 1.956166,-0.256025 1.55813,-0.40203 2.848237,-1.45812 3.550302,-2.906245 0.353028,-0.728057 0.532034,-1.436124 0.613052,-2.463608 0.01758,-0.224018 0.02491,-3.795719 0.02491,-7.362617 0,-3.5675 -0.0084,-7.132603 -0.02559,-7.356621 -0.08197,-1.04409 -0.261024,-1.746152 -0.62545,-2.488218 -0.299026,-0.607453 -0.631056,-1.061093 -1.113098,-1.524933 -0.860267,-0.821659 -1.912366,-1.321707 -3.166068,-1.50253 -0.607449,-0.08778 -0.728461,-0.113805 -3.836723,-0.1192 z"
       id="path7"
       style="fill:url(#c);stroke-width:0.200024" />
    <path
       fill="url(#d)"
       d="m 59.440885,42.994419 c -5.428853,0 -7.016594,0.0061 -7.325219,0.0312 -1.114091,0.09258 -1.80735,0.268021 -2.562612,0.644055 -0.582046,0.289023 -1.041091,0.624057 -1.494121,1.093687 -0.825077,0.856475 -1.325122,1.910162 -1.506132,3.162671 -0.088,0.608047 -0.113613,0.732061 -0.118813,3.837919 -0.0021,1.035285 0,2.397808 0,4.225366 0,5.424449 0.0062,7.010581 0.03205,7.318612 0.08997,1.084092 0.260025,1.766146 0.620054,2.512209 0.688061,1.428118 2.002174,2.500216 3.5503,2.900243 0.536046,0.138009 1.128096,0.214022 1.88816,0.250015 0.322027,0.01409 3.604308,0.02402 6.888583,0.02402 3.284276,0 6.568549,-0.0042 6.882577,-0.01994 0.880074,-0.0414 1.391114,-0.110013 1.956166,-0.256025 1.55813,-0.40203 2.848237,-1.45812 3.550302,-2.906245 0.353028,-0.728057 0.532034,-1.436124 0.613052,-2.463608 0.01758,-0.224018 0.02491,-3.795719 0.02491,-7.362617 0,-3.5675 -0.0084,-7.132603 -0.02559,-7.356621 -0.08197,-1.04409 -0.261024,-1.746152 -0.62545,-2.488218 -0.299026,-0.607453 -0.631056,-1.061093 -1.113098,-1.524933 -0.860267,-0.821659 -1.912366,-1.321707 -3.166068,-1.50253 -0.607449,-0.08778 -0.728461,-0.113805 -3.836723,-0.1192 z"
       id="path8"
       style="fill:url(#d);stroke-width:0.200024" />
    <path
       fill="#ffffff"
       d="m 59.434883,46.39471 c -2.607412,0 -2.934651,0.01148 -3.958734,0.05805 -1.022088,0.04681 -1.719741,0.208615 -2.330192,0.446035 -0.631459,0.245224 -1.167096,0.573247 -1.700745,1.107095 -0.534044,0.533643 -0.862072,1.069291 -1.108097,1.700543 -0.238012,0.610647 -0.400028,1.308506 -0.44603,2.330196 -0.04572,1.024089 -0.05783,1.351509 -0.05783,3.958939 0,2.607416 0.01167,2.933637 0.05805,3.957726 0.04702,1.022089 0.208819,1.719748 0.446035,2.330197 0.24542,0.631453 0.573452,1.167103 1.107293,1.700737 0.53345,0.534047 1.06909,0.86288 1.700144,1.108094 0.610853,0.237424 1.308713,0.399244 2.330594,0.446047 1.024084,0.0466 1.351117,0.05805 3.958342,0.05805 2.60761,0 2.933838,-0.01148 3.957925,-0.05805 1.022086,-0.04681 1.720546,-0.208623 2.331395,-0.446047 0.631255,-0.245214 1.166099,-0.574047 1.699547,-1.108094 0.534041,-0.533634 0.862075,-1.069284 1.108092,-1.700538 0.236025,-0.610648 0.398035,-1.308509 0.446039,-2.330192 0.04595,-1.024092 0.05807,-1.350514 0.05807,-3.95793 0,-2.60743 -0.01191,-2.934651 -0.05807,-3.958736 C 68.928661,51.014744 68.766697,50.31708 68.530672,49.706631 68.284655,49.075181 67.956621,48.539533 67.42258,48.00589 66.888537,47.471845 66.354491,47.143819 65.722439,46.898795 65.110386,46.661374 64.41233,46.499562 63.390241,46.45276 62.366157,46.40616 62.04013,46.39471 59.431908,46.39471 Z m -0.861265,1.730139 c 0.255614,-3.96e-4 0.540832,0 0.861265,0 2.56342,0 2.867244,0.0095 3.879524,0.05523 0.936078,0.04285 1.444124,0.19922 1.782552,0.330627 0.448039,0.174014 0.767467,0.382032 1.103294,0.718057 0.336024,0.33603 0.544043,0.656055 0.718457,1.104098 0.131418,0.33803 0.288032,0.846068 0.330632,1.782147 0.04594,1.012079 0.05597,1.316109 0.05597,3.878323 0,2.562216 -0.01,2.866245 -0.05597,3.87833 -0.04283,0.93608 -0.199214,1.444122 -0.330632,1.782151 -0.174008,0.448034 -0.382433,0.76706 -0.718457,1.102892 -0.336029,0.336027 -0.655056,0.544044 -1.103294,0.71806 -0.338027,0.132013 -0.846474,0.288025 -1.782552,0.33082 -1.012086,0.04594 -1.316104,0.056 -3.879524,0.056 -2.563618,0 -2.867436,-0.01 -3.879522,-0.056 -0.93608,-0.04312 -1.444123,-0.199608 -1.782759,-0.331019 -0.44803,-0.174015 -0.768056,-0.382032 -1.104088,-0.718067 -0.336028,-0.336024 -0.54404,-0.655249 -0.718463,-1.103487 -0.131408,-0.338031 -0.288022,-0.846073 -0.330627,-1.78215 -0.04595,-1.012086 -0.05523,-1.316115 -0.05523,-3.879933 0,-2.563815 0.0096,-2.866232 0.05523,-3.878324 0.04285,-0.936075 0.199219,-1.444119 0.330627,-1.782552 0.174018,-0.44803 0.382435,-0.768056 0.718463,-1.104086 0.336032,-0.33603 0.656058,-0.544043 1.104088,-0.718465 0.338435,-0.132008 0.846679,-0.288021 1.782759,-0.331021 0.885672,-0.04009 1.228903,-0.05201 3.018257,-0.05398 z m 5.986099,1.594136 c -0.636058,0 -1.152098,0.515444 -1.152098,1.151695 0,0.636056 0.51604,1.152104 1.152098,1.152104 0.63605,0 1.152096,-0.516048 1.152096,-1.152104 0,-0.636056 -0.516046,-1.152097 -1.152096,-1.152097 z m -5.124834,1.34611 c -2.722825,0 -4.930412,2.207581 -4.930412,4.930422 0,2.722821 2.207587,4.929409 4.930412,4.929409 2.722828,0 4.92962,-2.206588 4.92962,-4.929409 0,-2.722841 -2.206993,-4.930422 -4.929816,-4.930422 z m 0,1.730153 c 1.767347,0 3.200267,1.432714 3.200267,3.200269 0,1.767341 -1.43292,3.200266 -3.200267,3.200266 -1.767554,0 -3.200268,-1.432925 -3.200268,-3.200266 0,-1.767555 1.432714,-3.200269 3.200268,-3.200269 z"
       id="path9"
       style="stroke-width:0.200024" />
  </g>
</svg>
