<?xml version="1.0" encoding="UTF-8" standalone="no"?>
<!-- Created with Inkscape (http://www.inkscape.org/) -->

<svg
   width="32"
   height="32"
   viewBox="0 0 32 32"
   version="1.1"
   id="svg1"
   inkscape:export-filename="seu-logo.svg"
   inkscape:export-xdpi="96"
   inkscape:export-ydpi="96"
   xmlns:inkscape="http://www.inkscape.org/namespaces/inkscape"
   xmlns:sodipodi="http://sodipodi.sourceforge.net/DTD/sodipodi-0.dtd"
   xmlns="http://www.w3.org/2000/svg"
   xmlns:svg="http://www.w3.org/2000/svg">
  <sodipodi:namedview
     id="namedview1"
     pagecolor="#ffffff"
     bordercolor="#000000"
     borderopacity="0.25"
     inkscape:showpageshadow="2"
     inkscape:pageopacity="0.0"
     inkscape:pagecheckerboard="0"
     inkscape:deskcolor="#d1d1d1"
     inkscape:document-units="px">
    <inkscape:page
       x="0"
       y="0"
       width="32"
       height="32"
       id="page2"
       margin="0"
       bleed="0" />
  </sodipodi:namedview>
  <defs
     id="defs1" />
  <g
     inkscape:label="Layer 1"
     inkscape:groupmode="layer"
     id="layer1">
    <g
       id="g15"
       transform="translate(1.5e-7,0.25259775)">
      <path
         d="m 15.999023,3.4658483 c -5.596976,0.00844 -9.8683673,0.971051 -13.0253903,2.5273437 0.241111,3.5117214 1.5552451,7.68589 4.3613281,12.529296 2.8058942,4.843078 5.7747702,8.055824 8.7011712,10.011719 2.919779,-1.96485 5.877388,-5.188766 8.667969,-10.039062 C 27.494637,13.64493 28.7952,9.4677865 29.026367,5.9560826 25.864581,4.4090574 21.596519,3.4574119 15.999023,3.4658483 Z m 0.0039,2.3476562 c 4.548045,0.003 8.015661,0.7824358 10.582031,2.0449219 -0.193765,2.8533536 -1.256811,6.2467706 -3.533203,10.1835936 -2.276438,3.936902 -4.686158,6.551241 -7.0625,8.142578 C 13.614978,24.590134 11.2078,21.972224 8.9365233,18.032254 6.6653423,14.09245 5.606999,10.698351 5.416992,7.8447545 c 2.56798,-1.2589323 6.038228,-2.03425 10.585937,-2.03125 z"
         style="fill:#128980;fill-opacity:0.800792;stroke-width:8.8252"
         id="path12" />
      <path
         id="path15"
         style="fill:#fbe208;stroke-width:8.8252"
         inkscape:transform-center-x="0.0061994429"
         inkscape:transform-center-y="-0.71289337"
         transform="matrix(0.49238589,0,0,0.49238589,-5.6276337,-10.994102)"
         d="m 58.463256,46.913487 -7.687216,6.964877 2.179327,10.141663 -8.999473,-5.158711 -8.971846,5.206609 2.125236,-10.153136 -7.724232,-6.923802 10.31294,-1.116272 4.198008,-9.485754 4.248512,9.463242 z" />
      <path
         d="m -11.208879,23.548297 q -0.56,0 -1.032,-0.152 -0.472,-0.16 -0.832,-0.44 l 0.352,-0.528 q 0.32,0.248 0.72,0.376 0.408,0.12 0.768,0.12 0.576,0 0.872,-0.208 0.304,-0.208 0.304,-0.632 0,-0.248 -0.112,-0.408 -0.104,-0.16 -0.352,-0.288 -0.24,-0.136 -0.696,-0.296 l -0.136,-0.048 q -0.504,-0.176 -0.816,-0.344 -0.312,-0.176 -0.504,-0.456 -0.192,-0.28 -0.192,-0.704 0,-0.448 0.24,-0.752 0.248,-0.312 0.648,-0.464 0.4,-0.152 0.856,-0.152 0.48,0 0.904,0.12 0.4320004,0.12 0.8400004,0.392 l -0.336,0.528 q -0.3520004,-0.224 -0.6800004,-0.32 -0.328,-0.104 -0.736,-0.104 -0.424,0 -0.704,0.176 -0.28,0.176 -0.28,0.544 0,0.192 0.088,0.336 0.096,0.144 0.32,0.272 0.232,0.128 0.64,0.272 l 0.136,0.048 q 0.536,0.184 0.856,0.352 0.3200004,0.16 0.5520004,0.472 0.232,0.304 0.232,0.792 0,0.488 -0.232,0.824 -0.232,0.328 -0.6640004,0.504 -0.432,0.168 -1.024,0.168 z m 5.6960031,-1.728 h -2.44 q 0.008,0.6 0.288,0.872 0.288,0.272 0.736,0.272 0.32,0 0.552,-0.08 0.24,-0.08 0.528,-0.248 l 0.264,0.488 q -0.656,0.424 -1.376,0.424 -0.768,0 -1.232,-0.424 -0.456,-0.432 -0.456,-1.36 0,-0.528 0.192,-0.96 0.192,-0.432 0.568,-0.688 0.384,-0.264 0.936,-0.264 0.464,0 0.792,0.192 0.328,0.184 0.496,0.512 0.168,0.328 0.168,0.752 z m -1.44,-1.432 q -0.416,0 -0.656,0.248 -0.232,0.248 -0.304,0.68 h 1.744 v -0.032 q 0,-0.448 -0.208,-0.672 -0.2,-0.224 -0.576,-0.224 z m 5.2640056,-0.52 v 3.584 h -0.616 l -0.04,-0.264 q -0.616,0.36 -1.248,0.36 -0.488,0 -0.8,-0.272 -0.304,-0.28 -0.304,-0.84 v -2.488 l 0.688,-0.08 v 2.368 q 0,0.264 0.064,0.424 0.064,0.152 0.208,0.224 0.144,0.064 0.4,0.064 0.384,0 0.96,-0.296 v -2.704 z m 3.8719956,2.944 h 2.544 v 0.64 h -3.28 v -5.184 h 0.736 z m 4.6480018,0.736 q -0.56,0 -0.936,-0.24 -0.376,-0.248 -0.56,-0.664 -0.184,-0.424 -0.184,-0.952 0,-0.64 0.24,-1.048 0.24,-0.416 0.648,-0.6 0.408,-0.192 0.928,-0.192 0.56,0 0.936,0.248 0.376,0.24 0.56,0.656 0.184,0.416 0.184,0.944 0,0.648 -0.24,1.064 -0.24,0.408 -0.648,0.6 -0.408,0.184 -0.928,0.184 z m 0.064,-0.56 q 1.032,0 1.032,-1.296 0,-0.584 -0.256,-0.928 -0.248,-0.352 -0.752,-0.352 -0.56,0 -0.808,0.344 -0.24,0.336 -0.24,0.936 0,0.592 0.256,0.944 0.256,0.352 0.768,0.352 z m 4.4799979,-0.104 q 0.472,0.04 0.768,0.144 0.304,0.104 0.456,0.296 0.152,0.192 0.152,0.496 0,0.368 -0.24,0.64 -0.232,0.28 -0.672,0.424 -0.44,0.152 -1.048,0.152 -0.776,0 -1.2399999,-0.248 -0.464,-0.248 -0.464,-0.744 0,-0.304 0.144,-0.504 0.152,-0.2 0.432,-0.376 -0.24,-0.168 -0.24,-0.432 0,-0.16 0.088,-0.296 0.096,-0.136 0.296,-0.28 -0.288,-0.16 -0.432,-0.424 -0.144,-0.264 -0.144,-0.608 0,-0.44 0.216,-0.728 0.224,-0.288 0.5839999,-0.416 0.36,-0.128 0.8,-0.128 0.224,0 0.464,0.04 l 1.192,-0.496 0.24,0.56 -0.816,0.232 q 0.232,0.176 0.344,0.424 0.112,0.24 0.112,0.52 0,0.648 -0.456,0.944 -0.448,0.296 -1.144,0.296 -0.312,0 -0.536,-0.056 -0.104,0.112 -0.104,0.248 0,0.088 0.064,0.144 0.064,0.048 0.208,0.08 0.144,0.024 0.408,0.048 z m -0.576,-2.52 q -0.456,0 -0.672,0.208 -0.2079999,0.208 -0.2079999,0.544 0,0.344 0.2159999,0.544 0.216,0.2 0.68,0.2 0.864,0 0.864,-0.72 0,-0.36 -0.232,-0.568 -0.224,-0.208 -0.648,-0.208 z m 0.008,4.136 q 0.52,0 0.864,-0.136 0.352,-0.136 0.352,-0.448 0,-0.144 -0.096,-0.24 -0.096,-0.088 -0.296,-0.144 -0.2,-0.048 -0.528,-0.08 l -0.568,-0.048 q -0.256,-0.024 -0.472,-0.072 -0.1519999,0.136 -0.2399999,0.288 -0.08,0.16 -0.08,0.32 0,0.28 0.256,0.416 0.2559999,0.144 0.8079999,0.144 z m 3.983994,-0.952 q -0.56,0 -0.936,-0.24 -0.376,-0.248 -0.56,-0.664 -0.184,-0.424 -0.184,-0.952 0,-0.64 0.24,-1.048 0.24,-0.416 0.648,-0.6 0.408,-0.192 0.928,-0.192 0.56,0 0.936,0.248 0.376,0.24 0.56,0.656 0.184,0.416 0.184,0.944 0,0.648 -0.24,1.064 -0.24,0.408 -0.648,0.6 -0.408,0.184 -0.928,0.184 z m 0.064,-0.56 q 1.032,0 1.032,-1.296 0,-0.584 -0.256,-0.928 -0.248,-0.352 -0.752,-0.352 -0.56,0 -0.808,0.344 -0.24,0.336 -0.24,0.936 0,0.592 0.256,0.944 0.256,0.352 0.768,0.352 z"
         id="text7"
         style="font-size:8px;font-family:Dubai;-inkscape-font-specification:'Dubai, Normal';fill:#d70101;stroke-width:8.8252"
         inkscape:label="text7"
         transform="rotate(-45)"
         aria-label="Seu Logo" />
    </g>
  </g>
</svg>
